<svg xmlns="http://www.w3.org/2000/svg" height="1200" width="1600" version="1.1" xmlns:xlink="http://www.w3.org/1999/xlink" xmlns:svgjs="http://svgjs.com/svgjs"><rect fill="#f3e9e9" width="1600" height="1200"></rect><g><path d="M1255.78 891.96C1256.94 904.71 1264 926.93 1288.22 929.88 1312.35 932.83 1322.77 926.72 1345.1 939.05 1364.49 949.69 1369.54 978.97 1369.54 978.97L1317.4 1004.04C1317.4 1004.04 1312.66 983.6 1298.44 976.12 1273.27 962.96 1249.57 978.76 1224.81 958.85 1205.96 943.68 1203.64 918.09 1203.64 918.09L1255.78 891.96Z" fill="#ffffff" opacity="1" stroke-width="4" stroke="none"></path></g><g><path d="M316.35 213.7L423.47 291.53C423.86 291.13 424.05 290.16 423.86 289.38L387.34 166.93 318.3 199.93C317.52 200.22 315.76 213.11 316.35 213.7Z" fill="#ffa0dc" opacity="1" stroke-width="4" stroke="none"></path><path d="M423.17 291.62L310.39 235.48C310.1 235.28 309.9 234.99 310 234.6L317.71 200.42C317.81 199.83 318.49 199.64 318.98 200.03L423.56 291.13C423.76 291.43 423.47 291.82 423.17 291.62Z" fill="#1f2122" opacity="1" stroke-width="4" stroke="none"></path></g><g><path d="M598.69 251.71H1058.99C1077.71 251.71 1092.76 273.59 1092.76 300.62L1092.76 806.92C1092.76 833.94 1077.6 855.66 1058.99 855.66H598.69C579.96 855.66 564.8 833.78 564.8 806.92L564.8 300.62C564.91 273.59 579.96 251.71 598.69 251.71Z" fill="#1f2122" opacity="0.2" stroke-width="4" stroke="none"></path><path d="M581.97 227.58H1042.26C1060.99 227.58 1076.04 249.46 1076.04 276.48L1076.04 782.78C1076.04 809.81 1060.88 831.53 1042.26 831.53H581.97C563.24 831.53 548.08 809.65 548.08 782.78L548.08 276.48C548.19 249.46 563.24 227.58 581.97 227.58Z" fill="#ffffff" opacity="1" stroke-width="4" stroke="none"></path><path d="M622.99 290.16H768.47C777.06 290.16 784.08 300.29 784.08 312.68V313.65C784.08 326.04 777.06 336.17 768.47 336.17H622.99C614.41 336.17 607.39 326.04 607.39 313.65V312.68C607.39 300.29 614.41 290.16 622.99 290.16Z" fill="#ad32ff" opacity="1" stroke-width="4" stroke="none"></path><path d="M982.18 290.16H1076.04V336.17H982.18C973.59 336.17 966.57 326.04 966.57 313.65V312.68C966.57 300.29 973.59 290.16 982.18 290.16Z" fill="#ad32ff" opacity="1" stroke-width="4" stroke="none"></path><path d="M745.06 504.94H793.67C802.25 504.94 809.27 515.07 809.27 527.46V528.43C809.27 540.81 802.25 550.95 793.67 550.95H745.06C736.48 550.95 729.46 540.81 729.46 528.43V527.46C729.46 514.91 736.48 504.94 745.06 504.94Z" fill="#ff618b" opacity="1" stroke-width="4" stroke="none"></path><path d="M697.13 719.72H745.73C754.32 719.72 761.34 729.85 761.34 742.24V743.21C761.34 755.59 754.32 765.73 745.73 765.73H697.13C688.54 765.73 681.52 755.59 681.52 743.21V742.24C681.52 729.69 688.54 719.72 697.13 719.72Z" fill="#ad32ff" opacity="1" stroke-width="4" stroke="none"></path><path d="M803.25 719.72H897.45C906.04 719.72 913.06 729.85 913.06 742.24V743.21C913.06 755.59 906.04 765.73 897.45 765.73H803.25C794.67 765.73 787.65 755.59 787.65 743.21V742.24C787.65 729.69 794.56 719.72 803.25 719.72Z" fill="#ad32ff" opacity="1" stroke-width="4" stroke="none"></path><path d="M745.06 612.25H911.05C919.64 612.25 926.66 622.38 926.66 634.77V635.74C926.66 648.12 919.64 658.26 911.05 658.26H745.06C736.48 658.26 729.46 648.12 729.46 635.74V634.77C729.46 622.38 736.48 612.25 745.06 612.25Z" fill="#ffa0dc" opacity="1" stroke-width="4" stroke="none"></path><path d="M622.99 397.47H768.47C777.06 397.47 784.08 407.6 784.08 419.99V420.96C784.08 433.34 777.06 443.48 768.47 443.48H622.99C614.41 443.48 607.39 433.34 607.39 420.96V419.99C607.39 407.6 614.41 397.47 622.99 397.47Z" fill="#ffa0dc" opacity="1" stroke-width="4" stroke="none"></path><path d="M845.39 397.15H919.08C927.66 397.15 934.69 407.28 934.69 419.67V420.64C934.69 433.02 927.66 443.16 919.08 443.16H845.39C836.81 443.16 829.79 433.02 829.79 420.64V419.67C829.79 407.12 836.81 397.15 845.39 397.15Z" fill="#ffa0dc" opacity="1" stroke-width="4" stroke="none"></path><path d="M581.97 227.58H645.07L645.07 831.53H581.97C563.24 831.53 548.08 809.65 548.08 782.78L548.08 276.48C548.08 249.46 563.24 227.58 581.97 227.58Z" fill="#ffffff" opacity="1" stroke-width="4" stroke="none"></path><path d="M581.97 227.58H645.07L645.07 831.53H581.97C563.24 831.53 548.08 809.65 548.08 782.78L548.08 276.48C548.08 249.46 563.24 227.58 581.97 227.58Z" fill="#d2d2d2" opacity="0.2" stroke-width="4" stroke="none"></path><path d="M1076.04 365.93H646.18" stroke="#ededed" stroke-width="4" stroke-linejoin="round" opacity="1" fill="none"></path><path d="M1076.04 474.53H646.18" stroke="#ededed" stroke-width="4" stroke-linejoin="round" opacity="1" fill="none"></path><path d="M1076.04 584.74H646.18" stroke="#ededed" stroke-width="4" stroke-linejoin="round" opacity="1" fill="none"></path><path d="M1076.04 688.34H646.18" stroke="#ededed" stroke-width="4" stroke-linejoin="round" opacity="1" fill="none"></path><path d="M645.07 227.58L645.07 831.53" stroke="#202020" stroke-width="4" stroke-linejoin="round" opacity="1" fill="none"></path><path d="M585.76 313.17H607.39" stroke="#202020" stroke-width="4" stroke-linecap="round" stroke-linejoin="round" opacity="1" fill="none"></path><path d="M585.76 420.15H607.39" stroke="#202020" stroke-width="4" stroke-linecap="round" stroke-linejoin="round" opacity="1" fill="none"></path><path d="M585.76 527.14H607.39" stroke="#202020" stroke-width="4" stroke-linecap="round" stroke-linejoin="round" opacity="1" fill="none"></path><path d="M585.76 635.74H607.39" stroke="#202020" stroke-width="4" stroke-linecap="round" stroke-linejoin="round" opacity="1" fill="none"></path><path d="M585.76 742.72H607.39" stroke="#202020" stroke-width="4" stroke-linecap="round" stroke-linejoin="round" opacity="1" fill="none"></path></g><g><path d="M278.15 465.17L279.08 420.33 242.74 393.97 285.57 381.12 299.4 338.69 325.01 375.41 369.64 375.06 342.53 410.88 356.66 453.49 314.39 438.65 278.15 465.17Z" fill="#ad32ff" opacity="1" stroke-width="4" stroke="none"></path></g><g><path d="M1097 193.41C1134.86 193.41 1165.47 224.02 1165.47 261.88 1165.47 299.74 1132.77 330.35 1095.01 330.35 1057.24 330.35 1028.53 299.74 1028.53 261.88 1028.53 224.02 1059.14 193.41 1097 193.41Z" fill="#ffa0dc" opacity="1" stroke-width="4" stroke="none"></path><path d="M1038.77 225.84H1155.23" stroke="#171416" stroke-width="4" stroke-linecap="round" stroke-linejoin="round" opacity="1" fill="none"></path><path d="M1028.53 261.88H1165.47" stroke="#171416" stroke-width="4" stroke-linecap="round" stroke-linejoin="round" opacity="1" fill="none"></path><path d="M1038.86 298.11L1155.23 297.84" stroke="#171416" stroke-width="4" stroke-linecap="round" stroke-linejoin="round" opacity="1" fill="none"></path><path d="M1095.01 330.35L1097 193.41" stroke="#171416" stroke-width="4" stroke-linecap="round" stroke-linejoin="round" opacity="1" fill="none"></path><path d="M1097 193.41C1097 193.41 1008.61 254.27 1095.01 330.35" stroke="#171416" stroke-width="4" stroke-linecap="round" stroke-linejoin="round" opacity="1" fill="none"></path><path d="M1097.09 193.41C1097.09 193.41 1182.31 252.46 1095.01 330.35" stroke="#171416" stroke-width="4" stroke-linecap="round" stroke-linejoin="round" opacity="1" fill="none"></path></g><g><path d="M619.62 427.01C616.25 420.66 591.71 382.66 603.1 384.05 606.25 384.05 608.88 386.76 611.58 389.61 614.28 392.38 617.35 395.67 621.59 396.77 623.2 397.13 625.61 397.57 626.19 396.11 626.85 394.57 625.02 391.29 621.52 387.78 618.01 384.2 612.82 382.66 608.22 381.2 603.47 379.67 599.74 378.5 599.74 375.8 599.6 370.61 611.21 370.97 614.72 371.27 653.22 367.03 651.62 396.25 667.25 424.97 667.25 425.04 667.25 425.04 667.18 425.11L628.02 450.03 623.05 443.82 619.62 427.01Z" fill="#e5bb98" opacity="1" stroke-width="4" stroke="none"></path><path d="M410.72 959.5C409.4 949.42 408.38 939.55 407.94 929.33 407.5 919.39 407.58 909.23 407.94 899.3H479.11C477.5 913.47 478.6 923.63 484.08 931.74 487.58 936.92 492.77 941.16 500.22 945.76 506.14 949.86 508.55 956.94 511.62 961.98 511.62 961.91 410.57 959.72 410.72 959.5Z" fill="#e5bb98" opacity="1" stroke-width="4" stroke="none"></path><path d="M544.43 956.87C544.43 956.87 544.35 956.87 544.43 956.87 540.92 946.86 536.61 939.34 534.27 929.03 532.08 919.24 530.4 909.31 529.23 899.3 529.23 899.22 529.23 899.22 529.3 899.22L568.76 895.86 607.04 899.22C607.04 899.22 607.11 899.22 607.11 899.3 607.26 901.05 607.41 902.37 607.63 903.61 613.62 940.07 635.9 938.24 650.08 959.35 650.08 959.43 650.08 959.5 650 959.5 647.23 959.65 609.53 963.15 580.23 962.42 560.28 961.98 545.16 957.24 544.43 956.87Z" fill="#e5bb98" opacity="1" stroke-width="4" stroke="none"></path><path d="M529.23 899.3C526.31 873.8 525.72 857.87 526.82 840.33 527.18 834.42 527.84 827.47 528.5 820.75L575.7 736.88 607.92 821.41C607.99 821.63 607.99 821.78 607.99 822 606.9 856.04 605.95 885.49 607.11 899.3H529.23Z" fill="#ff3037" opacity="1" stroke-width="4" stroke="none"></path><path d="M526.82 840.33C527.12 835.07 527.63 829.3 528.43 821.63L575.7 736.8 607.93 821.41C608 821.56 608 821.7 608 821.92L607.85 825.79 526.82 840.33Z" fill="#151313" opacity="0.2" stroke-width="4" stroke="none"></path><path d="M407.94 899.3C408.75 879.42 411.3 859.4 415.18 841.36 416.71 834.42 419.56 824.55 421.46 818.34L497.15 821.34C496.64 823.02 496.06 825.14 495.62 826.82 485.98 861.6 480.64 885.93 479.11 899.44 477.79 899.37 407.94 899.3 407.94 899.3Z" fill="#ff3037" opacity="1" stroke-width="4" stroke="none"></path><path d="M415.18 841.36C416.64 834.64 418.61 827.84 420.51 821.56L497.45 821.26C497.01 822.94 496.35 825.06 495.91 826.74L415.18 841.36Z" fill="#151313" opacity="0.2" stroke-width="4" stroke="none"></path><path d="M469.76 961.04C469.76 949.13 476.41 939.26 484.08 931.74 487.59 936.63 492.78 940.43 500.3 945.69 506.15 949.71 510.68 954.46 513.75 959.43 513.82 959.5 513.75 959.65 513.67 959.65L469.76 961.04Z" fill="#ff3037" opacity="1" stroke-width="4" stroke="none"></path><path d="M604.7 959.5C604.7 948.03 611.72 938.68 619.68 931.23 624.72 937.07 631.15 941.89 636.71 945.76 642.62 949.86 647.15 954.46 650.22 959.5V959.57L604.78 961.18V959.5H604.7Z" fill="#ff3037" opacity="1" stroke-width="4" stroke="none"></path><path d="M410.65 959.5C409.77 953.07 408.53 942.4 407.94 929.4 407.94 929.33 408.02 929.33 408.02 929.33 425.84 931.37 441.33 942.92 448.35 959.5L429.72 963.37 411.08 959.94C410.87 959.94 410.65 959.72 410.65 959.5Z" fill="#ff3037" opacity="1" stroke-width="4" stroke="none"></path><path d="M542.96 959.43C539.68 949.64 536.02 938.97 534.34 929.11 534.34 929.03 534.34 929.03 534.42 929.03 554.44 928.81 573.21 941.67 580.52 959.35 580.52 959.43 580.52 959.43 580.45 959.43 579.13 959.65 564.37 962.35 564.01 962.42L542.96 959.43C542.96 959.5 542.96 959.5 542.96 959.43Z" fill="#ff3037" opacity="1" stroke-width="4" stroke="none"></path><path d="M678.21 447.18C678.21 447.18 678.21 447.11 678.13 447.11 678.06 447.03 677.84 447.18 677.84 447.18L661.47 445.94 650.22 448.93C650.08 449.01 646.13 457.63 646.13 457.63 640.72 450.69 629.18 436.15 619.54 427.01 610.55 419.27 596.89 411.16 589.14 409.04H589.07C565.25 405.39 545.67 406.85 513.01 407.21 512.94 407.21 512.94 407.21 512.86 407.21 506.94 409.04 494.3 415.18 485.32 423 482.03 425.84 479.03 429.21 477.35 432.27 464.42 453.02 457.63 497.08 455.29 515.06 452.37 538.22 457.77 557.65 464.35 572.56 467.27 579.06 470.34 584.68 473.12 589.36 461.57 617.49 454.85 651.54 454.56 670.75 449.44 742.28 443.74 756.82 434.39 780.86 430.37 791.02 425.62 803.44 420.22 821.56L555.53 821.63C555.75 821.63 555.97 821.48 556.04 821.26L577.74 760.11C577.96 759.53 578.77 759.67 578.84 760.26L584.54 820.9C584.61 821.34 584.9 821.63 585.34 821.63L607.99 821.85C608.79 797.88 609.89 770.85 610.04 750.61 610.77 644.23 584.17 552.76 583.88 551.81 584.25 549.47 585.78 540.04 587.61 528.57 588.19 524.77 588.85 520.9 589.43 517.17 590.97 507.75 592.36 499.42 592.79 496.5 592.87 496.06 593.45 495.84 593.74 496.2 615.88 517.83 662.13 543.33 684.2 514.69 696.76 497.23 688.51 470.05 678.21 447.18Z" fill="#ff618b" opacity="1" stroke-width="4" stroke="none"></path><path d="M472.6 588.26C468.44 581.32 467.78 579.94 464.42 572.56 464.71 572.34 476.33 563.2 479.25 541.58 480.86 532.01 481.59 506.95 485.9 503.44 486.12 503.22 486.56 503.37 486.63 503.66 487.8 509.28 495.91 552.54 495.91 552.54L472.6 588.26Z" fill="#000000" opacity="0.2" stroke-width="4" stroke="none"></path><path d="M413.13 972.87C412.69 971.56 411.74 966.95 410.72 959.79 410.72 959.65 410.87 959.43 411.01 959.43H513.59C513.67 959.43 513.81 959.5 513.89 959.57 517.76 966.15 517.9 971.48 517.9 972.73 517.9 972.87 517.76 973.02 517.61 973.02H413.42C413.28 973.09 413.2 973.02 413.13 972.87Z" fill="#0f0708" opacity="1" stroke-width="4" stroke="none"></path><path d="M548.08 972.87C546.98 970.24 545.45 966.51 543.04 959.65 543.04 959.57 543.04 959.57 543.11 959.57 546.76 959.57 647.96 959.57 650.22 959.57 650.22 959.57 650.3 959.57 650.3 959.65 654.53 966.88 654.46 971.04 654.39 972.65 654.39 972.94 654.09 973.16 653.8 973.16 645.77 973.16 553.85 973.09 548.37 973.09 548.23 973.02 548.08 972.94 548.08 972.87Z" fill="#0f0708" opacity="1" stroke-width="4" stroke="none"></path><path d="M510.96 397.35C508.19 384.78 503.66 362.86 502.05 354.32 500 343.79 498.47 323.48 511.99 312.38 524.84 301.56 541.8 296.89 558.23 303.54 570.07 307.85 578.77 313.69 583.15 325.38 584.76 329.55 586.22 334.08 587.83 338.75 587.9 338.9 588.04 339.05 588.26 339.12 598.71 340.51 597.62 344.45 592.65 351.47 592.5 351.61 592.5 351.9 592.57 352.12 597.76 368.49 598.35 377.99 592.87 385.66 589.43 390.41 585.41 393.19 575.48 393.19 571.82 393.19 567.15 392.6 564.52 391.58L564.59 398.74 510.96 397.35Z" fill="#e5bb98" opacity="1" stroke-width="4" stroke="none"></path><path d="M502.05 354.24C500.73 329.33 498.91 301.05 540.41 298.71 550.2 298.79 554.65 299.08 567.29 302.73 567.37 302.73 567.37 302.73 567.37 302.81 574.46 307.48 579.93 315.15 583.15 325.46L539.97 350.59 502.05 354.24Z" fill="#ff618b" opacity="1" stroke-width="4" stroke="none"></path><path d="M578.77 339.34C581.83 339.41 581.83 343.94 578.77 344.01 575.7 343.94 575.7 339.41 578.77 339.34Z" fill="#231f20" opacity="1" stroke-width="4" stroke="none"></path><path d="M580.52 483.35L592.79 495.25C592.94 495.4 593.01 495.55 592.94 495.77L589.43 517.17 580.23 483.49C580.23 483.35 580.37 483.27 580.52 483.35Z" fill="#000000" opacity="0.2" stroke-width="4" stroke="none"></path><path d="M648.99 461.21C649.21 461.5 649.5 461.57 649.79 461.43L678.06 447.25C678.13 447.25 678.13 447.11 678.13 447.11 674.84 439.65 671.05 432.35 667.4 425.19 667.33 425.11 667.25 425.04 667.11 425.11L633.86 441.7C633.57 441.85 633.5 442.21 633.72 442.43 639.42 448.57 647.23 458.8 648.99 461.21Z" fill="#ff3037" opacity="1" stroke-width="4" stroke="none"></path><path d="M528.79 440.68C509.36 440.97 493.14 431.76 485.39 423 500.37 406.12 503 403.27 498.03 364.03 496.5 349.42 492.04 320.78 508.77 307.85 523.24 295.86 549.98 292.58 567.15 302.66 567.22 302.73 567.29 302.81 567.22 302.95 555.97 319.17 551.15 341.68 552.46 375.43 552.76 380.76 555.02 386.32 561.45 389.97 563.06 390.92 564.96 391.72 567.08 392.38L568.76 405.83C568.76 405.97 568.9 406.12 569.12 406.12 575.99 406.12 582.71 407.14 589.29 409.11 587.02 414.67 565.18 441.19 528.79 440.68Z" fill="#ff3037" opacity="1" stroke-width="4" stroke="none"></path><path d="M567 392.31C564.81 391.65 562.98 390.85 561.38 389.9L557.36 405.83C557.36 405.9 557.36 405.97 557.43 405.97L568.61 406.04C568.68 406.04 568.76 405.97 568.76 405.9L567 392.31Z" fill="#0f0708" opacity="0.2" stroke-width="4" stroke="none"></path><path d="M491.68 528.57H587.61L583.89 551.81 582.65 553.05 495.92 552.54 491.68 528.57Z" fill="#ff618b" opacity="1" stroke-width="4" stroke="none"></path><path d="M434.98 941.16L479.25 919.53" stroke="#0f0708" stroke-width="4" stroke-linecap="round" stroke-linejoin="round" opacity="1" fill="none"></path><path d="M567.67 941.75L610.7 916.03" stroke="#0f0708" stroke-width="4" stroke-linecap="round" stroke-linejoin="round" opacity="1" fill="none"></path><path d="M587.39 361.62C584.4 362.06 581.33 361.11 579.07 359.06" stroke="#151414" stroke-width="4" stroke-linecap="round" stroke-linejoin="round" opacity="1" fill="none"></path><path d="M614.71 371.27C622.9 372.73 630.57 376.53 634.37 380.25" stroke="#151414" stroke-width="4" stroke-linecap="round" stroke-linejoin="round" opacity="1" fill="none"></path><path d="M568.91 405.97H557.44" stroke="#0f0708" stroke-width="4" stroke-linecap="round" stroke-linejoin="round" opacity="1" fill="none"></path><path d="M593.82 496.2L580.53 483.35" stroke="#000000" stroke-width="4" stroke-linecap="round" stroke-linejoin="round" opacity="1" fill="none"></path><path d="M619.62 427.01C625.17 432.05 629.77 437.9 633.35 441.99 644.31 454.63 649.28 461.65 649.28 461.65" stroke="#000000" stroke-width="4" stroke-linecap="round" stroke-linejoin="round" opacity="1" fill="none"></path><path d="M567.08 392.31C557.94 389.53 554.44 382.74 554.44 382.74" stroke="#0f0708" stroke-width="4" stroke-linecap="round" stroke-linejoin="round" opacity="1" fill="none"></path><path d="M584.54 820.9L578.84 760.26" stroke="#151313" stroke-width="4" stroke-linecap="round" stroke-linejoin="round" opacity="1" fill="none"></path><path d="M486.64 503.66L496.43 551.81C496.43 551.81 482.91 566.35 473.12 589.21" stroke="#000000" stroke-width="4" stroke-linecap="round" stroke-linejoin="round" opacity="1" fill="none"></path></g><g><path d="M1126.73 809.51L1164.56 771.67 1231.57 838.67C1242.03 849.13 1242.03 866.05 1231.57 876.51 1221.1 886.97 1204.19 886.97 1193.73 876.51L1126.73 809.51Z" fill="#ff3037" stroke-linejoin="round" opacity="1" stroke-width="4" stroke="none"></path><path d="M1231.57 855.83C1221.1 866.29 1204.19 866.29 1193.73 855.83L1137.12 799.21 1126.73 809.53 1193.73 876.54C1204.19 887 1221.1 887 1231.57 876.54 1239.52 868.58 1241.38 856.97 1237.3 847.23 1236.01 850.38 1234.08 853.25 1231.57 855.83Z" fill="#000000" opacity="0.2" stroke-width="4" stroke="none"></path><path d="M1124.67 752.51L1107.49 769.69 1137.03 799.23 1154.21 782.05 1124.67 752.51Z" fill="#ff3037" opacity="1" stroke-width="4" stroke="none"></path><path d="M1139.12 793.82C1128.09 783.93 1124.36 769.02 1128.81 756.63L1124.65 752.47 1107.45 769.67 1136.97 799.19 1140.84 795.32C1140.34 794.82 1139.7 794.32 1139.12 793.82Z" fill="#000000" opacity="0.2" stroke-width="4" stroke="none"></path><path d="M1116.12 599.61C1158.69 640.74 1162.84 707.53 1125.72 753.61 1123.65 756.19 1121.42 758.7 1119.06 761.13 1115.83 764.5 1112.32 767.73 1108.67 770.66 1059.65 810.37 987.71 802.7 948.01 753.68 908.31 704.67 915.97 632.72 964.99 593.02 1009.85 556.76 1074.63 559.62 1116.12 599.61Z" fill="#ff3037" opacity="1" stroke-width="4" stroke="none"></path><path d="M1036.79 762.07C1081.08 762.07 1116.98 726.16 1116.98 681.88 1116.98 637.59 1081.08 601.69 1036.79 601.69 992.51 601.69 956.6 637.59 956.6 681.88 956.6 726.16 992.51 762.07 1036.79 762.07Z" fill="#eeeeee" opacity="1" stroke-width="4" stroke="none"></path><path d="M1164.51 771.6C1174.69 782.27 1174.26 799.19 1163.58 809.36 1153.26 819.18 1137 819.25 1126.68 809.43L1164.51 771.6Z" fill="#ffffff" stroke-linejoin="round" opacity="1" stroke-width="4" stroke="none"></path><path d="M1075.27 694.27C1082 694.27 1087.46 688.82 1087.46 682.09 1087.46 675.36 1082 669.91 1075.27 669.91 1068.55 669.91 1063.09 675.36 1063.09 682.09 1063.09 688.82 1068.55 694.27 1075.27 694.27Z" fill="#ad32ff" opacity="1" stroke-width="4" stroke="none"></path><path d="M1037.22 694.27C1043.95 694.27 1049.41 688.82 1049.41 682.09 1049.41 675.36 1043.95 669.91 1037.22 669.91 1030.49 669.91 1025.04 675.36 1025.04 682.09 1025.04 688.82 1030.49 694.27 1037.22 694.27Z" fill="#ad32ff" opacity="1" stroke-width="4" stroke="none"></path><path d="M1009.96 687.74C1013.08 681.78 1010.78 674.42 1004.83 671.3 998.86 668.18 991.5 670.48 988.38 676.44 985.25 682.39 987.55 689.76 993.52 692.88 999.47 696 1006.84 693.7 1009.96 687.74Z" fill="#ad32ff" opacity="1" stroke-width="4" stroke="none"></path><path d="M1165.5 847.13L1202.54 810.01" stroke="#000000" stroke-width="4" stroke-linecap="round" stroke-linejoin="round" opacity="1" fill="none"></path><path d="M1177.18 858.81L1214.3 821.69" stroke="#000000" stroke-width="4" stroke-linecap="round" stroke-linejoin="round" opacity="1" fill="none"></path><path d="M1188.86 870.49L1225.98 833.37" stroke="#000000" stroke-width="4" stroke-linecap="round" stroke-linejoin="round" opacity="1" fill="none"></path><path d="M1125.87 753.68C1123.79 756.26 1121.57 758.77 1119.2 761.21 1115.91 764.57 1112.47 767.8 1108.81 770.74" stroke="#000000" stroke-width="4" stroke-linecap="round" stroke-linejoin="round" opacity="1" fill="none"></path></g><g><path d="M1277.64 395.08C1254.34 403.38 1213.8 414.37 1194.73 390.5 1170.91 360.55 1209.85 325.8 1227.2 365.42 1245 419.76 1179.33 451.42 1195.93 483.2 1213.22 517.1 1275.69 483.14 1313.08 496.48 1344.12 507.59 1344.92 545.38 1344.92 545.38" stroke="#1f2122" stroke-width="4" stroke-linecap="round" opacity="1" fill="none"></path></g></svg>